<svg xmlns="http://www.w3.org/2000/svg" width="1341.321" height="326.819" viewBox="0 0 1341.321 326.819">
  <g id="Lorime" transform="translate(1747.299 1458.996)" style="isolation: isolate">
    <g id="Grupo_3" data-name="Grupo 3" transform="translate(-1747.299 -1458.996)" style="isolation: isolate">
      <path id="Caminho_1" data-name="Caminho 1" d="M-1498.047-1220.149c-8.513,55.337-43.04,87.972-92.7,87.972-17.973,0-32.635-4.256-50.134-14.189-15.135-9.459-15.135-9.459-45.877-38.309-12.3-10.879-21.756-16.081-30.27-16.081-14.189,0-22.229,10.405-25.54,33.107h-4.73c2.838-30.742,19.865-54.39,49.188-69.526,19.865-10.878,25.54-16.554,25.54-25.54,0-7.094-4.257-13.715-16.081-23.648-32.634-29.323-47.769-53.918-47.769-78.985,0-54.391,49.661-93.647,118.714-93.647,66.215,0,119.187,40.2,119.187,90.809,0,24.594-7.094,37.838-39.256,74.729-7.094,8.041-10.405,14.662-10.405,20.81,0,7.095,5.676,11.825,14.188,11.825,14.662,0,30.27-11.351,42.094-29.8l4.257,1.892c-16.081,24.595-34.053,35.945-55.337,35.945-31.689,0-57.229-26.959-57.229-60.539,0-16.553,4.729-28.377,17.973-44.932,24.594-30.27,26.958-35,26.958-47.769,0-27.905-26.485-47.769-63.377-47.769-35.472,0-59.12,18.445-59.12,45.877,0,13.716,5.2,24.121,21.756,41.148,27.432,28.378,34.053,40.2,34.053,60.539a43.177,43.177,0,0,1-8.04,25.54c-6.148,8.514-7.095,9.46-30.27,25.067l-26.486,17.027h7.567c23.175,0,37.365,6.148,70,29.8,29.323,21.757,47.3,30.27,63.377,30.27,13.243,0,26.485-6.621,33.58-16.08,4.729-6.622,7.094-12.77,9.459-26.013Z" transform="translate(1747.299 1458.996)" fill="#fff"/>
      <path id="Caminho_2" data-name="Caminho 2" d="M-661.292-1106.815c7.095.473,12.3.947,16.081.947,20.337,0,54.864-6.621,72.837-14.19,14.188-6.148,24.121-12.769,36.418-24.594,15.608,11.825,26.959,22.7,34.526,33.58,8.987,12.3,12.3,32.162,12.3,74.256,0,43.513-1.419,61.013-5.2,70.472-5.2,12.771-14.189,19.864-31.688,24.594-38.31,9.46-52.026,18.919-62.431,43.04-20.811-22.7-51.553-41.148-90.809-54.391v-2.837c15.608-3.311,17.973-6.149,17.973-24.594Zm105.944,158.443v-84.187c0-47.769-10.878-67.633-40.2-74.256V-975.8Z" transform="translate(954.058 1225.529)" fill="#fff"/>
      <path id="Caminho_3" data-name="Caminho 3" d="M312.738-1091.885,264.5-1044.116l-33.581-58.647-14.662,14.188v90.809c0,21.757,12.77,37.837,29.324,37.837,8.513,0,13.716-2.837,34.526-19.864l4.257-3.784,3.311,4.258c-9.46,8.513-14.662,13.243-33.581,28.377C229.5-930.6,216.726-920.2,199.7-905.537c-24.595-27.432-48.716-43.04-79.458-52.5v-4.73a31.44,31.44,0,0,0,6.148.472c14.662,0,21.283-8.986,21.283-30.27v-72.363c0-24.594-5.676-35.472-17.973-35.472-4.729,0-7.567.946-12.77,5.676l-3.783,2.837-3.784-3.784c17.5-15.608,31.688-28.85,43.513-39.256,11.351-10.4,14.662-13.243,20.811-18.918,29.324,14.662,42.567,32.635,42.567,58.174,20.81-17.5,34.053-31.215,52.026-52.971,1.892-1.419,3.311-3.311,5.2-5.2Z" transform="translate(368.334 1232.356)" fill="#fff"/>
      <path id="Caminho_4" data-name="Caminho 4" d="M1009.294-1369.133c21.756,22.229,34.526,31.215,52.026,37.837v3.784c-26.959,4.73-26.959,5.2-26.959,60.066,0,29.8,1.891,63.378,3.783,71.418,2.365,9.459,6.621,13.716,14.19,13.716,4.729,0,8.041-1.419,16.553-8.514l3.311,3.784c-4.256,3.783-4.73,4.256-20.81,16.553-25.067,20.338-37.837,31.216-44.931,38.31-30.743-22.229-37.837-34.526-37.837-68.106V-1306.7c0-12.77-4.729-20.81-12.3-20.81-3.784,0-5.676.946-10.405,5.2l-2.365,2.365-3.311-3.783c9.459-8.986,22.229-19.392,56.756-46.824a50,50,0,0,1,5.675-4.729Zm-38.783-58.175c0-19.392,13.243-31.689,33.108-31.689,18.445,0,32.161,13.244,32.161,30.27,0,19.865-18.445,33.108-52.025,37.364C973.821-1408.861,970.511-1417.375,970.511-1427.307Z" transform="translate(-248.768 1458.996)" fill="#fff"/>
      <path id="Caminho_5" data-name="Caminho 5" d="M1701.21-1142.812c12.771,22.229,26.959,35,53.445,47.3v3.311h-3.783q-17.027,0-17.027,19.864v101.687c0,17.027,6.149,26.013,17.027,26.013,3.311,0,5.676-.946,10.406-2.837v3.783c-4.258,3.311-10.879,8.041-19.865,15.135-6.148,5.2-12.769,9.932-18.445,14.662-4.73,4.256-9.46,8.039-14.662,12.3a42.813,42.813,0,0,1-4.73,4.256c-17.5-15.608-24.594-23.648-29.8-34.526-6.149-11.351-6.621-15.135-6.621-46.351v-90.336c0-19.392-3.312-26.486-11.825-26.486-4.73,0-7.095.946-16.08,8.041l-8.986,7.095v117.768c0,12.3,5.2,19.391,16.554,21.283v3.311c-16.554,3.311-36.891,18.918-51.553,40.2-7.567-16.553-31.215-36.891-46.823-40.2v-3.311c12.77-5.2,15.608-9.46,15.608-23.648v-109.728c0-15.608-4.257-22.7-13.716-22.7-4.73,0-7.095,1.419-13.716,6.621l-9.932,8.513v119.661c0,10.4,4.256,17.026,13.243,21.283v3.311c-22.7,5.676-38.783,17.973-52.026,40.2-5.676-14.662-26.013-32.161-45.877-40.2v-3.311c14.662-6.149,17.026-10.406,17.026-29.8v-97.9c0-15.135-5.676-25.067-14.188-25.067-4.257,0-7.567,1.891-12.77,8.041l-4.729-3.311,4.256-3.784c8.986-8.041,27.9-24.594,56.283-50.134l5.676,4.256c27.431,17.5,31.688,23.648,33.107,49.661l68.58-53.918c25.54,18.445,35,31.689,34.526,50.134l.473,6.621Z" transform="translate(-610.561 1224.162)" fill="#fff"/>
      <path id="Caminho_6" data-name="Caminho 6" d="M2967.45-1072.073,2865.763-1008.7c9.932,28.378,36.417,49.661,61.958,49.661,14.189,0,27.432-5.2,43.513-16.554l1.892,3.783c-67.161,47.3-73.782,52.027-89.863,67.634-69.052-30.743-80.877-52.026-80.877-145.673,0-27.432,4.73-43.512,16.081-53.918,10.406-9.46,10.406-9.46,68.107-34.054L2917.316-1152Zm-101.687-48.242c-.946,11.351-1.893,43.039-1.893,78.512,0,3.783,0,7.567.947,25.54l44.458-27.9Z" transform="translate(-1631.804 1230.989)" fill="#fff"/>
    </g>
  </g>
</svg>
